<svg width="115" height="30" viewBox="0 0 115 30" fill="none" xmlns="http://www.w3.org/2000/svg">
<path d="M0.64 0.999998H7.28C9.54667 0.999998 11.2 1.53333 12.24 2.6C13.28 3.64 13.8 5.25333 13.8 7.44V8.56C13.8 10 13.56 11.1733 13.08 12.08C12.6267 12.9867 11.92 13.64 10.96 14.04V14.12C13.1467 14.8667 14.24 16.8133 14.24 19.96V22.36C14.24 24.52 13.6667 26.1733 12.52 27.32C11.4 28.44 9.74667 29 7.56 29H0.64V0.999998ZM6.76 12.4C7.64 12.4 8.29333 12.1733 8.72 11.72C9.17333 11.2667 9.4 10.5067 9.4 9.44V7.88C9.4 6.86667 9.21333 6.13333 8.84 5.68C8.49333 5.22667 7.93333 5 7.16 5H5.04V12.4H6.76ZM7.56 25C8.33333 25 8.90667 24.8 9.28 24.4C9.65333 23.9733 9.84 23.2533 9.84 22.24V19.8C9.84 18.52 9.61333 17.64 9.16 17.16C8.73333 16.6533 8.01333 16.4 7 16.4H5.04V25H7.56ZM23.1719 29.4C21.0119 29.4 19.3585 28.7867 18.2119 27.56C17.0652 26.3333 16.4919 24.6 16.4919 22.36V7.64C16.4919 5.4 17.0652 3.66667 18.2119 2.44C19.3585 1.21333 21.0119 0.599998 23.1719 0.599998C25.3319 0.599998 26.9852 1.21333 28.1319 2.44C29.2785 3.66667 29.8519 5.4 29.8519 7.64V22.36C29.8519 24.6 29.2785 26.3333 28.1319 27.56C26.9852 28.7867 25.3319 29.4 23.1719 29.4ZM23.1719 25.4C24.6919 25.4 25.4519 24.48 25.4519 22.64V7.36C25.4519 5.52 24.6919 4.6 23.1719 4.6C21.6519 4.6 20.8919 5.52 20.8919 7.36V22.64C20.8919 24.48 21.6519 25.4 23.1719 25.4ZM39.1875 29.4C37.0275 29.4 35.3742 28.7867 34.2275 27.56C33.0808 26.3333 32.5075 24.6 32.5075 22.36V7.64C32.5075 5.4 33.0808 3.66667 34.2275 2.44C35.3742 1.21333 37.0275 0.599998 39.1875 0.599998C41.3475 0.599998 43.0008 1.21333 44.1475 2.44C45.2942 3.66667 45.8675 5.4 45.8675 7.64V22.36C45.8675 24.6 45.2942 26.3333 44.1475 27.56C43.0008 28.7867 41.3475 29.4 39.1875 29.4ZM39.1875 25.4C40.7075 25.4 41.4675 24.48 41.4675 22.64V7.36C41.4675 5.52 40.7075 4.6 39.1875 4.6C37.6675 4.6 36.9075 5.52 36.9075 7.36V22.64C36.9075 24.48 37.6675 25.4 39.1875 25.4ZM48.8431 0.999998H53.2431V12.8L58.8431 0.999998H63.2431L58.0031 11.28L63.3231 29H58.7231L55.0031 16.52L53.2431 20.08V29H48.8431V0.999998ZM65.4056 0.999998H77.0456V5H69.8056V12.8H75.4856V16.8H69.8056V29H65.4056V0.999998ZM79.1556 0.999998H83.5556V25H90.7956V29H79.1556V0.999998ZM92.9056 0.999998H97.3056V29H92.9056V0.999998ZM104.481 14.68L99.6409 0.999998H104.281L107.241 10.04H107.321L110.361 0.999998H114.521L109.681 14.68L114.761 29H110.121L106.921 19.24H106.841L103.561 29H99.4009L104.481 14.68Z" fill="#643FD1"/>
</svg>
