<svg width="700" height="519" viewBox="0 0 700 519" fill="none" xmlns="http://www.w3.org/2000/svg">
<g clip-path="url(#clip0_7_3)">
<path d="M633.851 516.596H485.427V512.037C485.427 508.079 486.998 504.283 489.794 501.484C492.591 498.686 496.383 497.113 500.338 497.113H618.94C622.895 497.113 626.688 498.686 629.484 501.484C632.28 504.283 633.851 508.079 633.851 512.037V516.596Z" fill="#E6E6E6"/>
<path d="M556.166 498.023L560.679 496.204C513.452 378.873 518.002 230.851 557.924 103.874C562.666 89.1616 563.008 73.3828 558.908 58.4787C554.808 43.5746 546.444 30.1953 534.846 19.9867C511.673 -0.710165 479.727 -5.7521 451.469 6.82716C423.576 19.2459 419.731 40.8775 419.731 62.4038H424.597C424.597 39.4255 429.504 21.9375 453.447 11.2775C479.932 -0.511579 509.879 4.21702 531.605 23.6213C542.499 33.2093 550.355 45.7756 554.206 59.7742C558.058 73.7727 557.736 88.5928 553.282 102.411C512.899 230.854 508.616 379.893 556.166 498.023Z" fill="#E6E6E6"/>
<path d="M423.381 134.246C432.788 134.246 440.413 126.614 440.413 117.199C440.413 107.784 432.788 100.152 423.381 100.152C413.974 100.152 406.349 107.784 406.349 117.199C406.349 126.614 413.974 134.246 423.381 134.246Z" fill="#E6E6E6"/>
<path d="M397.15 146.918V114.617H402.168V146.918C403.607 147.5 404.799 148.566 405.54 149.932C406.28 151.298 406.523 152.879 406.226 154.405C405.93 155.93 405.112 157.305 403.914 158.293C402.716 159.282 401.211 159.822 399.659 159.822C398.106 159.822 396.602 159.282 395.403 158.293C394.205 157.305 393.388 155.93 393.091 154.405C392.795 152.879 393.037 151.298 393.778 149.932C394.518 148.566 395.71 147.5 397.15 146.918Z" fill="#E6E6E6"/>
<path d="M372.892 89.8012C372.901 82.376 375.852 75.2573 381.097 70.0069C386.343 64.7565 393.455 61.8031 400.874 61.7947H447.104C454.526 61.7947 461.643 64.7454 466.89 69.9976C472.138 75.2498 475.086 82.3734 475.086 89.8012C475.086 97.229 472.138 104.353 466.89 109.605C461.643 114.857 454.526 117.808 447.104 117.808H400.874C393.455 117.799 386.343 114.846 381.097 109.595C375.852 104.345 372.901 97.2264 372.892 89.8012Z" fill="#6C63FF"/>
<path d="M307.756 263.235C312.397 203.797 336.13 175.478 320.933 157.719C306.377 140.708 265.375 144.222 239.043 160.545C168.019 204.574 141.998 380.053 233.395 465.789C320.246 547.259 484.845 521.166 521.424 454.484C529.959 438.925 536.74 411.649 524.248 395.131C493.235 354.12 380.479 428.402 330.346 381.941C300.636 354.407 305.208 295.855 307.756 263.235Z" fill="#3F3D56"/>
<path d="M362.047 233.706C360.322 234.5 358.975 235.937 358.292 237.71C357.609 239.484 357.645 241.454 358.391 243.201C358.548 243.554 358.734 243.894 358.947 244.216L343.703 264.589L351.31 275.968L369.178 245.8C370.444 244.812 371.348 243.432 371.748 241.876C372.148 240.32 372.022 238.675 371.39 237.198C371.022 236.361 370.493 235.604 369.833 234.972C369.174 234.339 368.396 233.843 367.544 233.512C366.693 233.18 365.785 233.02 364.871 233.039C363.958 233.059 363.058 233.259 362.221 233.627C362.163 233.652 362.105 233.679 362.047 233.706Z" fill="#FFB6B6"/>
<path d="M362.035 268.832C363.033 269.718 360.265 270.811 357.338 269.087C356.5 268.587 356.143 268.38 356.049 268.512C355.813 268.842 357.188 271.272 356.821 276.671C356.595 279.893 351.248 285.951 345.177 291.858C336.969 299.847 327.425 307.553 327.425 307.553L324.074 304.868L288.936 276.671L283.006 268.456C283.549 265.211 284.364 262.019 285.444 258.912C286.931 254.611 288.698 250.413 290.734 246.344C291.826 244.13 292.946 242.02 294.019 240.079L312.844 260.843L328.62 278.235C328.62 278.235 333.213 270.83 336.771 268.814C337.225 268.524 337.741 268.346 338.277 268.295C341.873 268.126 342.09 266.166 337.92 261.899C333.75 257.631 339.012 261.616 342.72 260.467C346.429 259.317 342.72 260.467 343.502 257.593C344.283 254.72 354.684 248.954 354.684 248.954L355.117 249.34L362.976 256.284L365.226 258.271C365.226 258.271 362.769 265.017 362.092 266.44C361.414 267.862 361.047 267.937 362.035 268.832Z" fill="#6C63FF"/>
<path d="M569.225 399.706L569.608 389.314L529.744 382.89L529.178 398.227L569.225 399.706Z" fill="#FFB6B6"/>
<path d="M561.989 402.835L561.611 386.196L568.717 386.459L580.19 371.077C580.757 370.317 581.551 369.759 582.458 369.483C583.364 369.207 584.334 369.228 585.228 369.544C586.121 369.859 586.89 370.452 587.423 371.236C587.956 372.019 588.224 372.953 588.189 373.901L587.461 393.666L580.306 396.813L587.286 398.403L587.011 405.855L561.989 402.835Z" fill="#2F2E41"/>
<path d="M344.864 403.752L471.129 406.956C471.129 406.956 525.655 410.108 538.448 401.779L551.938 400.074L552.67 380.24C552.67 380.24 544.42 380.301 539.677 378.089C534.934 375.877 538.23 373.171 533.708 375.832C529.186 378.493 529.664 378.813 526.168 377.59C522.671 376.367 362.339 351.907 362.339 351.907L344.864 403.752Z" fill="#2F2E41"/>
<path d="M511.248 395.145L518.591 387.788L493.731 355.941L482.895 366.8L511.248 395.145Z" fill="#FFB6B6"/>
<path d="M503.817 388.745L514.846 376.29L519.878 381.32L538.741 377.854C539.672 377.682 540.634 377.814 541.486 378.228C542.338 378.643 543.035 379.319 543.476 380.158C543.916 380.998 544.077 381.956 543.935 382.893C543.793 383.831 543.356 384.698 542.686 385.369L528.721 399.362L521.337 396.799L525.374 402.716L520.109 407.992L503.817 388.745Z" fill="#2F2E41"/>
<path d="M295.049 334.54L296.304 363.745C297.782 398.125 335.611 418.934 364.945 400.983C365.485 400.652 366.028 400.309 366.572 399.955C366.572 399.955 377.693 396.966 377.355 392.232C377.017 387.498 379.734 385.195 382.138 386.486C384.543 387.776 416.02 343.063 416.02 343.063C416.02 343.063 481.421 375.716 495.849 383.402C495.849 383.402 509.415 362.174 508.431 362.396C507.448 362.619 427.522 306.628 427.522 306.628C427.522 306.628 414.501 293.439 398.35 302.147C398.013 303.426 398.301 303.471 398.301 303.471L344.945 346.986L337.406 332.655L295.049 334.54Z" fill="#2F2E41"/>
<path d="M345.356 298.028C345.255 299.378 345.063 300.718 344.782 302.042C344.397 303.957 343.778 305.818 342.937 307.581C342.937 307.581 342.937 309.55 339.172 316.145C335.407 322.74 340.113 319.914 342.937 324.813C345.761 329.702 342.937 327.451 339.802 330.597C338.9 331.513 338.259 332.654 337.946 333.901C337.633 335.149 337.66 336.458 338.023 337.691C338.023 337.691 297.586 337.72 290.056 334.893C282.526 332.067 280.813 316.145 287.562 314.572C294.301 312.999 285.519 311.435 281.556 307.808C277.594 304.18 285.519 298.245 285.519 298.245C285.519 298.245 282.253 292.602 282.526 273.656C282.564 271.914 282.725 270.176 283.006 268.456C283.549 265.211 284.364 262.019 285.444 258.912C286.931 254.612 288.698 250.413 290.734 246.344C291.826 244.13 292.946 242.02 294.019 240.079C294.188 239.778 294.348 239.486 294.518 239.194C296.56 235.576 298.424 232.618 299.657 230.724C300.608 229.254 301.182 228.425 301.182 228.425L308.034 216.498L330.907 227.229L329.608 244.78L333.552 258.017L335.369 264.113L336.771 268.814L338.936 276.096C338.936 276.096 338.343 276.124 339.049 277.095C342.3 281.421 344.408 286.499 345.177 291.858C345.448 293.903 345.508 295.971 345.356 298.028Z" fill="#6C63FF"/>
<path d="M411.41 299.92L410.981 299.781L356.235 282.136L376.409 215.895C376.81 214.576 377.506 213.365 378.443 212.354C379.38 211.344 380.535 210.559 381.819 210.059C383.103 209.56 384.484 209.359 385.857 209.471C387.23 209.583 388.56 210.006 389.746 210.707L424.731 231.395C427.5 233.031 429.607 235.588 430.683 238.621C431.759 241.654 431.737 244.969 430.619 247.987L411.41 299.92Z" fill="#2F2E41"/>
<path d="M411.633 304.131L356.447 286.344L376.62 220.103C377.022 218.784 377.717 217.573 378.654 216.562C379.592 215.552 380.746 214.767 382.03 214.267C383.314 213.768 384.695 213.566 386.068 213.679C387.441 213.791 388.771 214.214 389.957 214.915L426.612 233.232C432.119 236.488 431.99 244.914 429.433 251.827L411.633 304.131Z" fill="#6C63FF"/>
<path d="M406.107 308.926C404.837 309.643 403.431 310.088 401.979 310.233C400.527 310.377 399.061 310.218 397.673 309.765L362.4 298.396C359.694 297.511 357.44 295.602 356.121 293.076C354.802 290.551 354.522 287.61 355.341 284.88L373.025 226.811C373.379 225.651 373.96 224.574 374.735 223.641C375.51 222.709 376.463 221.941 377.539 221.382C378.614 220.823 379.79 220.485 380.998 220.387C382.206 220.29 383.421 220.434 384.572 220.813L421.126 232.826C422.868 233.398 424.478 234.314 425.86 235.519C427.242 236.724 428.369 238.195 429.174 239.843C429.978 241.492 430.445 243.285 430.546 245.117C430.647 246.949 430.38 248.783 429.761 250.51L410.853 303.271C410.004 305.667 408.318 307.675 406.107 308.926Z" fill="#3F3D56"/>
<path d="M329.614 216.702C343.567 216.702 354.879 205.38 354.879 191.415C354.879 177.449 343.567 166.128 329.614 166.128C315.661 166.128 304.35 177.449 304.35 191.415C304.35 205.38 315.661 216.702 329.614 216.702Z" fill="#FFB6B6"/>
<path d="M244.181 217.083C246.5 221.581 250.301 225.138 254.941 227.15C256.793 227.995 258.74 228.612 260.739 228.987C261.305 226.744 262.21 224.6 263.423 222.63C263.019 224.85 263.019 227.125 263.423 229.345C266.469 229.595 269.535 229.214 272.428 228.226C275.269 227.259 277.847 225.642 279.955 223.504C282.063 221.367 283.645 218.766 284.574 215.91C286.587 209.207 284.419 202.048 284.249 195.052C284.073 188.054 287.392 179.685 294.332 178.82C299.617 178.159 298.964 178.672 302.762 182.409C297.449 188.315 310.4 214.475 317.349 213.319C321.278 212.665 324.169 209.543 324.946 209.652C328.925 219.405 316.956 233.237 326.449 237.778L325.744 236.845C320.775 228.629 335.478 214.752 330.509 206.536C329.124 204.237 327.684 201.543 328.541 199C329.354 196.583 333.474 195.818 334.343 198.018C332.93 192.975 336.874 187.056 342.113 186.541C346.767 186.082 346.498 187.409 350.936 188.621C351.503 186.707 352.32 184.877 353.366 183.178C353.012 185.117 352.968 187.099 353.237 189.051C354.837 189.243 356.456 188.9 357.842 188.076C361.94 185.617 362.061 179.27 359.246 175.408C356.426 171.544 351.703 169.637 347.145 168.193C347.104 158.547 321.171 153.929 316.402 162.898C315.911 155.636 307.595 150.745 300.43 151.978C293.266 153.212 287.614 158.961 284.168 165.37C280.723 171.773 279.013 178.944 276.491 185.764C273.969 192.585 270.363 199.387 264.324 203.434C258.285 207.475 249.311 207.843 244.269 202.604C243.119 204.841 242.512 207.317 242.497 209.833C242.481 212.348 243.058 214.832 244.181 217.083Z" fill="#2F2E41"/>
<path d="M270.105 332.719C270.627 332.301 271.195 331.941 271.796 331.647C281.466 326.83 311.538 314.326 335.052 314.839C380.296 315.826 437.874 365.802 424.473 399.363C414.277 424.9 363.585 439.428 326.581 427.808C274.742 411.529 254.28 345.348 270.105 332.719Z" fill="#3F3D56"/>
<path d="M82.2815 516.692C67.4978 513.901 54.4116 447.239 83.4981 414.408C93.4635 403.159 105.894 398.263 122.429 393.707C217.599 367.483 290.186 392.476 299.941 398.578C309.674 404.666 326.736 496.401 304.918 509.386C292.641 516.692 268.31 520.345 256.254 511.822C238.515 499.28 268.29 466.747 255.037 444.849C239.998 420 160.806 411.63 121.102 436.326C78.7425 462.674 166.116 532.522 82.2815 516.692Z" fill="#F2F2F2"/>
<path d="M181.123 403.352H124.644C110.702 389.979 100.733 377.09 108.714 366.391C108.714 363.316 109.935 360.366 112.107 358.192C114.28 356.017 117.227 354.795 120.3 354.795H185.467C188.54 354.795 191.487 356.017 193.659 358.192C195.832 360.366 197.053 363.316 197.053 366.391C200.091 378.582 194.663 390.904 181.123 403.352Z" fill="#CCCCCC"/>
<path d="M170.98 340.198C170.444 340.222 169.913 340.081 169.46 339.794C169.007 339.507 168.653 339.087 168.446 338.592C168.239 338.096 168.189 337.549 168.303 337.025C168.417 336.5 168.69 336.023 169.084 335.659L169.263 334.945C169.239 334.888 169.216 334.831 169.192 334.774C168.652 333.498 167.747 332.41 166.591 331.646C165.436 330.883 164.08 330.479 162.696 330.484C161.311 330.489 159.959 330.903 158.809 331.675C157.658 332.447 156.762 333.542 156.232 334.822C154.112 339.932 151.413 345.051 150.749 350.453C150.456 352.841 150.579 355.262 151.114 357.608C146.135 346.738 143.55 334.924 143.533 322.967C143.532 319.966 143.699 316.968 144.032 313.986C144.308 311.541 144.69 309.114 145.179 306.704C147.847 293.629 153.576 281.374 161.896 270.945C165.922 268.746 169.179 265.364 171.226 261.256C171.968 259.779 172.492 258.203 172.782 256.575C172.328 256.635 171.07 249.711 171.412 249.286C170.779 248.325 169.646 247.847 168.955 246.909C165.517 242.243 160.78 243.058 158.307 249.398C153.024 252.067 152.973 256.493 156.214 260.749C158.277 263.457 158.56 267.121 160.369 270.021C160.183 270.259 159.99 270.49 159.803 270.729C156.4 275.108 153.434 279.811 150.948 284.77C151.553 279.215 150.831 273.595 148.842 268.374C146.827 263.507 143.049 259.409 139.723 255.202C135.727 250.148 127.533 252.354 126.829 258.759C126.822 258.822 126.815 258.884 126.809 258.945C127.303 259.224 127.786 259.521 128.26 259.834C128.854 260.231 129.315 260.8 129.581 261.464C129.848 262.128 129.908 262.857 129.753 263.556C129.598 264.254 129.236 264.89 128.715 265.379C128.193 265.869 127.536 266.189 126.829 266.298L126.757 266.309C126.933 268.092 127.244 269.858 127.687 271.593C123.42 288.112 132.633 294.129 145.789 294.399C146.08 294.548 146.363 294.697 146.653 294.839C144.155 301.925 142.588 309.305 141.992 316.796C141.654 321.215 141.674 325.654 142.051 330.069L142.029 329.913C141.076 325.003 138.459 320.572 134.62 317.369C128.918 312.682 120.863 310.955 114.711 307.187C114.058 306.767 113.298 306.543 112.521 306.541C111.744 306.539 110.983 306.759 110.327 307.176C109.671 307.593 109.148 308.189 108.82 308.894C108.491 309.598 108.371 310.382 108.473 311.153C108.481 311.208 108.49 311.263 108.498 311.318C109.415 311.691 110.308 312.122 111.171 312.607C111.665 312.886 112.149 313.182 112.622 313.495C113.217 313.893 113.678 314.461 113.944 315.125C114.211 315.789 114.27 316.518 114.116 317.217C113.961 317.916 113.599 318.552 113.077 319.041C112.556 319.53 111.898 319.85 111.192 319.959L111.119 319.971C111.067 319.978 111.022 319.985 110.97 319.993C112.537 323.737 114.736 327.184 117.471 330.181C120.139 344.602 131.601 345.97 143.861 341.77H143.868C145.213 347.621 147.162 353.316 149.684 358.763H170.459C170.534 358.532 170.601 358.294 170.668 358.063C168.745 358.184 166.814 358.069 164.919 357.72C166.46 355.827 168.002 353.919 169.543 352.026C169.578 351.99 169.61 351.953 169.64 351.914C170.422 350.945 171.211 349.984 171.993 349.015L171.994 349.014C172.035 346.044 171.694 343.08 170.98 340.198Z" fill="#CCCCCC"/>
<path d="M241.84 400.324C242.185 401.328 242.838 402.197 243.707 402.806C244.576 403.415 245.615 403.733 246.676 403.714L267.395 403.18C268.464 403.159 269.497 402.793 270.34 402.136C271.183 401.479 271.791 400.566 272.073 399.535L275.005 368.154C276.045 368.626 277.178 368.859 278.32 368.836C280.323 368.786 282.224 367.941 283.605 366.487C284.986 365.034 285.734 363.091 285.684 361.086C285.633 359.081 284.789 357.178 283.337 355.795C281.885 354.413 279.944 353.665 277.94 353.715C277.484 353.714 277.029 353.761 276.582 353.856C276.097 353.331 275.507 352.913 274.851 352.629C274.194 352.346 273.486 352.203 272.77 352.21L240.899 353.034C240.635 353.044 240.372 353.076 240.113 353.132C239.414 353.262 238.751 353.541 238.169 353.949C237.587 354.357 237.099 354.886 236.738 355.499C236.376 356.112 236.151 356.795 236.076 357.503C236 358.21 236.078 358.926 236.302 359.601L241.84 400.324ZM275.606 366.024L277.693 358.546C277.93 357.682 277.936 356.771 277.709 355.904C277.81 355.904 277.899 355.856 278 355.856C279.431 355.826 280.814 356.366 281.848 357.356C282.882 358.346 283.481 359.706 283.514 361.137C283.548 362.569 283.013 363.955 282.027 364.993C281.041 366.03 279.684 366.634 278.254 366.672C277.329 366.701 276.413 366.477 275.606 366.024Z" fill="#CCCCCC"/>
<path d="M240.113 353.132C240.792 357.017 248.426 359.749 257.606 359.274C266.047 358.885 272.948 355.919 274.213 352.403C273.745 352.264 273.258 352.199 272.77 352.21L240.899 353.034C240.635 353.044 240.372 353.076 240.113 353.132Z" fill="white"/>
<path d="M1.10962 518.164L698.89 518.45C699.185 518.45 699.467 518.333 699.675 518.125C699.883 517.917 700 517.634 700 517.34C700 517.045 699.883 516.763 699.675 516.554C699.467 516.346 699.185 516.229 698.89 516.229L1.10962 515.942C0.81533 515.942 0.533096 516.059 0.325 516.268C0.116905 516.476 0 516.758 0 517.053C0 517.348 0.116905 517.63 0.325 517.838C0.533096 518.047 0.81533 518.164 1.10962 518.164Z" fill="#CACACA"/>
<path d="M392.473 269.953C390.575 270.022 388.78 270.83 387.468 272.204C386.156 273.578 385.432 275.41 385.45 277.311C385.459 277.697 385.501 278.082 385.574 278.461L363.675 291.401L366.326 304.834L394.41 283.861C395.958 283.436 397.322 282.51 398.289 281.227C399.256 279.945 399.772 278.378 399.756 276.771C399.738 275.857 399.54 274.955 399.174 274.117C398.808 273.28 398.281 272.522 397.622 271.888C396.964 271.255 396.187 270.757 395.336 270.424C394.485 270.091 393.577 269.928 392.664 269.946C392.6 269.948 392.537 269.95 392.473 269.953Z" fill="#FFB6B6"/>
<path d="M374.534 300.802C373.948 300.016 373.696 299.687 373.563 299.778C373.22 299.985 373.55 302.76 371.138 307.597C367.743 314.392 332.143 324.799 332.143 324.799L327.76 316.767L308.48 281.472L301.835 253.182C301.602 252.195 301.49 251.185 301.499 250.171C307.424 245.998 313.716 242.373 320.297 239.341C322.927 240.834 324.932 243.225 325.945 246.076L339.216 283.32L344.512 298.19C344.512 298.19 353.854 291.504 357.242 292.732C360.625 293.966 361.587 292.235 359.375 286.692C357.164 281.149 360.483 286.855 364.346 287.217C368.216 287.585 364.346 287.217 366.174 284.865C368.002 282.513 379.822 281.19 379.822 281.19L380.073 281.715L384.653 291.145L385.965 293.855C385.965 293.855 381.109 299.128 379.937 300.179C378.76 301.238 378.397 301.164 378.973 302.37C379.542 303.571 376.568 303.516 374.534 300.802Z" fill="#6C63FF"/>
</g>
<defs>
<clipPath id="clip0_7_3">
<rect width="700" height="519" fill="white"/>
</clipPath>
</defs>
</svg>
