<svg width="41" height="25" viewBox="0 0 41 25" fill="none" xmlns="http://www.w3.org/2000/svg">
<path d="M25.923 21.9978H15.1058V2.6328H25.9232L25.923 21.9978Z" fill="#B1B1B1"/>
<path d="M15.7916 12.3156C15.7916 8.38736 17.638 4.88811 20.5132 2.63304C18.3368 0.923549 15.645 -0.00424911 12.8734 -0.00016971C6.04603 -0.00016971 0.511627 5.51369 0.511627 12.3156C0.511627 19.1174 6.04603 24.6313 12.8734 24.6313C15.6451 24.6354 18.337 23.7076 20.5134 21.9981C17.6384 19.7434 15.7916 16.2439 15.7916 12.3156Z" fill="#A0A0A0"/>
<path d="M40.5166 12.3157C40.5166 19.1176 34.9822 24.6314 28.1548 24.6314C25.3829 24.6355 22.6903 23.7076 20.5134 21.9981C23.3894 19.743 25.2362 16.2441 25.2362 12.3157C25.2362 8.38733 23.3892 4.88811 20.5132 2.63304C22.69 0.9236 25.3828 -0.00401337 28.1546 -5.94462e-06C34.982 -5.94462e-06 40.5166 5.51385 40.5166 12.3157Z" fill="#C4C4C4"/>
</svg>
