<svg width="398" height="25" viewBox="0 0 398 25" fill="none" xmlns="http://www.w3.org/2000/svg">
<path d="M56.3464 0.972995C54.545 0.31661 52.6409 -0.0127678 50.7238 0.000372236C44.5238 0.000372236 40.145 3.12362 40.114 7.60699C40.0753 10.9007 43.2256 12.7569 45.6087 13.8574C48.0539 14.9889 48.8715 15.7019 48.8638 16.7132C48.8483 18.2516 46.9108 18.9491 45.1089 18.9491C42.6328 18.9491 41.2804 18.6042 39.1995 17.7401L38.4284 17.3797L37.5487 22.5412C39.0561 23.169 41.7725 23.7076 44.578 23.7541C51.1694 23.7541 55.4784 20.6502 55.5287 15.8801C55.583 13.249 53.878 11.2611 50.2897 9.61812C48.1081 8.55249 46.7557 7.8395 46.7557 6.75837C46.7557 5.80125 47.9144 4.77825 50.3363 4.77825C51.9481 4.73925 53.5499 5.04166 55.0366 5.66562L55.6179 5.92524L56.4975 0.938121L56.3464 0.972995ZM72.4354 0.418871H67.5916C66.0843 0.418871 64.9489 0.833496 64.2901 2.32925L54.9746 23.4325H61.566L62.8835 19.9721L70.928 19.9799C71.1179 20.7897 71.6991 23.4325 71.6991 23.4325H77.5116L72.4354 0.418871ZM31.1976 0.225121H37.479L33.5498 23.2504H27.2761L31.1976 0.217371V0.225121ZM15.252 12.9157L15.903 16.1126L22.041 0.418871H28.6944L18.8092 23.4015H12.1714L6.74638 3.94124C6.65851 3.62036 6.45216 3.34477 6.169 3.17012C4.21368 2.16005 2.14189 1.39354 0 0.887744L0.0852498 0.403369H10.1951C11.5669 0.457619 12.6712 0.887745 13.0394 2.35249L15.2481 12.9274L15.252 12.9157ZM64.6854 15.264L67.1886 8.82374C67.1576 8.89349 67.704 7.49462 68.0218 6.6305L68.4519 8.61837L69.905 15.2601H64.6815L64.6854 15.264Z" fill="black" fill-opacity="0.2"/>
<path d="M156.923 21.9978H146.106V2.6328H156.923L156.923 21.9978Z" fill="#B1B1B1"/>
<path d="M146.792 12.3156C146.792 8.38736 148.638 4.88811 151.513 2.63304C149.337 0.923549 146.645 -0.00424911 143.873 -0.00016971C137.046 -0.00016971 131.512 5.51369 131.512 12.3156C131.512 19.1174 137.046 24.6313 143.873 24.6313C146.645 24.6354 149.337 23.7076 151.513 21.9981C148.638 19.7434 146.792 16.2439 146.792 12.3156Z" fill="#A0A0A0"/>
<path d="M171.517 12.3157C171.517 19.1176 165.982 24.6314 159.155 24.6314C156.383 24.6355 153.69 23.7076 151.513 21.9981C154.389 19.743 156.236 16.2441 156.236 12.3157C156.236 8.38733 154.389 4.88811 151.513 2.63304C153.69 0.9236 156.383 -0.00401337 159.155 -5.94462e-06C165.982 -5.94462e-06 171.517 5.51385 171.517 12.3157Z" fill="#C4C4C4"/>
<path d="M244.23 18.3557C243.287 18.3557 242.404 17.9932 241.737 17.326L238.143 13.732C237.896 13.485 237.447 13.485 237.2 13.732L233.592 17.3407C232.924 18.008 232.041 18.3705 231.099 18.3705H230.388L234.954 22.9364C236.375 24.3568 238.693 24.3568 240.114 22.9364L244.693 18.357L244.23 18.3557Z" fill="black" fill-opacity="0.2"/>
<path d="M231.084 5.62988C232.026 5.62988 232.91 5.99236 233.577 6.65959L237.186 10.2683C237.446 10.5288 237.866 10.5288 238.128 10.2683L241.737 6.67436C242.404 6.00713 243.287 5.64464 244.23 5.64464H244.665L240.085 1.06529C238.665 -0.355104 236.346 -0.355104 234.926 1.06529L230.359 5.62988H231.084Z" fill="black" fill-opacity="0.2"/>
<path d="M248.447 9.42787L245.678 6.65959C245.621 6.68912 245.548 6.70255 245.476 6.70255H244.215C243.563 6.70255 242.925 6.963 242.476 7.42751L238.881 11.0215C238.548 11.3544 238.098 11.5289 237.663 11.5289C237.214 11.5289 236.779 11.3544 236.446 11.0215L232.837 7.41274C232.374 6.94957 231.736 6.68778 231.099 6.68778H229.548C229.475 6.68778 229.418 6.67301 229.36 6.64482L226.577 9.42787C225.157 10.8483 225.157 13.1668 226.577 14.5872L229.345 17.3555C229.403 17.326 229.461 17.3125 229.533 17.3125H231.084C231.736 17.3125 232.374 17.0521 232.822 16.5876L236.431 12.9789C237.084 12.3264 238.229 12.3264 238.88 12.9789L242.474 16.5728C242.937 17.036 243.575 17.2978 244.212 17.2978H245.473C245.545 17.2978 245.603 17.3125 245.676 17.3407L248.444 14.5724C249.867 13.152 249.867 10.8483 248.447 9.42787Z" fill="black" fill-opacity="0.2"/>
<path d="M375.622 5.08741H370.47C370.118 5.08741 369.819 5.34478 369.764 5.69422L367.68 18.9588C367.64 19.2206 367.841 19.4572 368.105 19.4572H370.748C370.994 19.4572 371.204 19.2773 371.243 19.0325L371.833 15.2721C371.888 14.9227 372.188 14.6653 372.54 14.6653H374.171C377.563 14.6653 379.522 13.0162 380.034 9.74801C380.264 8.31863 380.043 7.19544 379.376 6.40915C378.644 5.5445 377.345 5.08741 375.622 5.08741ZM376.217 9.93191C375.935 11.7888 374.523 11.7888 373.157 11.7888H372.38L372.925 8.32188C372.958 8.11217 373.138 7.9578 373.349 7.9578H373.705C374.635 7.9578 375.513 7.9578 375.966 8.48974C376.237 8.80826 376.319 9.28 376.217 9.93191Z" fill="#A1A7B3"/>
<path d="M338.881 5.08741H333.73C333.378 5.08741 333.078 5.34478 333.023 5.69422L330.94 18.9588C330.899 19.2206 331.1 19.4572 331.364 19.4572H333.824C334.176 19.4572 334.476 19.2001 334.531 18.8507L335.093 15.2721C335.148 14.9227 335.448 14.6653 335.8 14.6653H337.43C340.823 14.6653 342.781 13.0162 343.293 9.74801C343.523 8.31863 343.302 7.19544 342.636 6.40915C341.903 5.5445 340.604 5.08741 338.881 5.08741ZM339.476 9.93191C339.194 11.7888 337.782 11.7888 336.416 11.7888H335.639L336.184 8.32188C336.217 8.11217 336.397 7.9578 336.608 7.9578H336.964C337.894 7.9578 338.773 7.9578 339.225 8.48974C339.496 8.80826 339.578 9.28 339.476 9.93191Z" fill="#A1A7B3"/>
<path d="M354.278 9.87263H351.811C351.6 9.87263 351.42 10.027 351.387 10.2367L351.279 10.9293L351.106 10.6785C350.572 9.89983 349.381 9.63967 348.193 9.63967C345.468 9.63967 343.139 11.7135 342.686 14.622C342.45 16.073 342.785 17.4599 343.605 18.4277C344.357 19.317 345.431 19.6872 346.711 19.6872C348.908 19.6872 350.126 18.2699 350.126 18.2699L350.016 18.9585C349.975 19.2203 350.176 19.4572 350.44 19.4572H352.662C353.014 19.4572 353.313 19.2001 353.368 18.8509L354.702 10.3711C354.743 10.1091 354.542 9.87263 354.278 9.87263ZM350.84 14.6941C350.602 16.1093 349.483 17.0595 348.056 17.0595C347.341 17.0595 346.768 16.8284 346.4 16.3909C346.035 15.9573 345.898 15.3393 346.013 14.6511C346.235 13.2485 347.372 12.2676 348.778 12.2676C349.478 12.2676 350.047 12.5007 350.422 12.9425C350.8 13.3873 350.948 14.0092 350.84 14.6941Z" fill="#A1A7B3"/>
<path d="M391.019 9.87263H388.552C388.341 9.87263 388.161 10.027 388.128 10.2367L388.019 10.9293L387.847 10.6785C387.313 9.89983 386.122 9.63967 384.933 9.63967C382.208 9.63967 379.88 11.7135 379.427 14.622C379.191 16.073 379.526 17.4599 380.346 18.4277C381.098 19.317 382.173 19.6872 383.452 19.6872C385.649 19.6872 386.867 18.2699 386.867 18.2699L386.757 18.9585C386.716 19.2203 386.917 19.4572 387.181 19.4572H389.403C389.755 19.4572 390.054 19.2001 390.109 18.8509L391.443 10.3711C391.484 10.1091 391.282 9.87263 391.019 9.87263ZM387.581 14.6941C387.343 16.1093 386.224 17.0595 384.797 17.0595C384.082 17.0595 383.509 16.8284 383.141 16.3909C382.776 15.9573 382.639 15.3393 382.754 14.6511C382.977 13.2485 384.113 12.2676 385.518 12.2676C386.219 12.2676 386.788 12.5007 387.163 12.9425C387.541 13.3873 387.689 14.0092 387.581 14.6941Z" fill="#A1A7B3"/>
<path d="M367.415 9.87263H364.936C364.699 9.87263 364.477 9.99097 364.344 10.1879L360.924 15.2461L359.474 10.3853C359.384 10.0812 359.105 9.87239 358.789 9.87239H356.352C356.057 9.87239 355.85 10.163 355.945 10.4429L358.675 18.4901L356.107 22.1281C355.906 22.4139 356.109 22.8089 356.458 22.8089H358.935C359.169 22.8089 359.389 22.6933 359.523 22.4994L367.768 10.5494C367.965 10.2637 367.762 9.87263 367.415 9.87263Z" fill="#A1A7B3"/>
<path d="M393.926 5.45173L391.812 18.959C391.771 19.2206 391.972 19.4572 392.236 19.4572H394.362C394.714 19.4572 395.014 19.2001 395.069 18.8507L397.154 5.58611C397.195 5.32432 396.994 5.08764 396.73 5.08764H394.351C394.139 5.08741 393.959 5.24202 393.926 5.45173Z" fill="#A1A7B3"/>
<path d="M320.794 5.79506C321.07 4.02058 320.792 2.81343 319.84 1.71965C318.792 0.515752 316.898 -5.94462e-06 314.475 -5.94462e-06H307.442C306.947 -5.94462e-06 306.525 0.363115 306.448 0.856337L303.519 19.5751C303.461 19.9445 303.745 20.2783 304.115 20.2783H308.457L308.158 22.1938C308.107 22.517 308.355 22.809 308.679 22.809H312.339C312.773 22.809 313.141 22.4914 313.209 22.06L313.245 21.8723L313.934 17.4656L313.979 17.2221C314.046 16.7909 314.415 16.4729 314.848 16.4729H315.396C318.941 16.4729 321.718 15.0211 322.529 10.8221C322.868 9.06757 322.692 7.603 321.796 6.57335C321.525 6.2625 321.188 6.00509 320.794 5.79506Z" fill="#A1A7B3"/>
<path d="M320.794 5.79506C321.07 4.02058 320.792 2.81343 319.84 1.71965C318.792 0.515752 316.898 -5.94462e-06 314.475 -5.94462e-06H307.442C306.947 -5.94462e-06 306.525 0.363115 306.448 0.856337L303.519 19.5751C303.461 19.9445 303.745 20.2783 304.115 20.2783H308.457L309.548 13.307L309.514 13.5256C309.591 13.0326 310.009 12.6693 310.505 12.6693H312.569C316.622 12.6693 319.795 11.0096 320.722 6.20976C320.75 6.06804 320.773 5.93028 320.794 5.79506Z" fill="#A1A7B3"/>
<path d="M310.72 5.81853C310.766 5.52209 310.955 5.27907 311.21 5.15641C311.325 5.10065 311.454 5.06952 311.59 5.06952H317.103C317.756 5.06952 318.365 5.11273 318.922 5.20311C319.081 5.22889 319.236 5.25863 319.386 5.29232C319.536 5.326 319.683 5.36341 319.824 5.40523C319.895 5.4259 319.964 5.44797 320.032 5.47074C320.306 5.56228 320.56 5.66984 320.794 5.79506C321.07 4.02058 320.792 2.81343 319.84 1.71965C318.792 0.515752 316.898 -5.94462e-06 314.475 -5.94462e-06H307.442C306.947 -5.94462e-06 306.525 0.363115 306.448 0.856337L303.519 19.5751C303.461 19.9445 303.745 20.2783 304.115 20.2783H308.457L309.548 13.307L310.72 5.81853Z" fill="#A1A7B3"/>
</svg>
