<svg width="95" height="23" viewBox="0 0 95 23" fill="none" xmlns="http://www.w3.org/2000/svg">
<path d="M72.627 5.08742H67.4755C67.1234 5.08742 66.8235 5.34479 66.7687 5.69423L64.6855 18.9588C64.6445 19.2206 64.8457 19.4572 65.1096 19.4572H67.7529C67.9992 19.4572 68.2094 19.2773 68.2476 19.0325L68.8384 15.2721C68.8933 14.9227 69.1931 14.6653 69.5455 14.6653H71.1756C74.5685 14.6653 76.5266 13.0162 77.0385 9.74801C77.2689 8.31863 77.0478 7.19545 76.3813 6.40915C75.6487 5.5445 74.3504 5.08742 72.627 5.08742ZM73.2215 9.93192C72.94 11.7889 71.528 11.7889 70.1618 11.7889H69.3848L69.9298 8.32189C69.9629 8.11218 70.1428 7.9578 70.3539 7.9578H70.7103C71.64 7.9578 72.5184 7.9578 72.971 8.48975C73.2421 8.80827 73.3238 9.28 73.2215 9.93192Z" fill="#A1A7B3"/>
<path d="M35.8862 5.08742H30.7349C30.3828 5.08742 30.083 5.34479 30.0279 5.69423L27.9447 18.9588C27.9037 19.2206 28.1051 19.4572 28.3691 19.4572H30.8287C31.1808 19.4572 31.4806 19.2001 31.5357 18.8507L32.0979 15.2721C32.1527 14.9227 32.4525 14.6653 32.8047 14.6653H34.4348C37.8279 14.6653 39.7861 13.0162 40.298 9.74801C40.5283 8.31863 40.3072 7.19545 39.6409 6.40915C38.9079 5.5445 37.6094 5.08742 35.8862 5.08742ZM36.4807 9.93192C36.1992 11.7889 34.7869 11.7889 33.4212 11.7889H32.644L33.189 8.32189C33.2221 8.11218 33.4018 7.9578 33.6131 7.9578H33.9694C34.8992 7.9578 35.7776 7.9578 36.2302 8.48975C36.5011 8.80827 36.583 9.28 36.4807 9.93192Z" fill="#A1A7B3"/>
<path d="M51.2827 9.87263H48.8164C48.605 9.87263 48.4251 10.027 48.392 10.2367L48.2837 10.9293L48.1112 10.6785C47.5768 9.89983 46.3864 9.63967 45.1975 9.63967C42.4726 9.63967 40.1445 11.7135 39.6914 14.622C39.4555 16.073 39.7902 17.4599 40.6096 18.4278C41.3622 19.317 42.4365 19.6872 43.7163 19.6872C45.9127 19.6872 47.1312 18.2699 47.1312 18.2699L47.021 18.9585C46.9795 19.2203 47.181 19.4572 47.4451 19.4572H49.6665C50.0187 19.4572 50.3182 19.2001 50.3733 18.8509L51.7069 10.3711C51.7481 10.1091 51.5467 9.87263 51.2827 9.87263ZM47.8452 14.6941C47.6069 16.1093 46.488 17.0595 45.061 17.0595C44.3456 17.0595 43.7728 16.8284 43.4047 16.3909C43.0398 15.9573 42.9025 15.3393 43.0183 14.6511C43.2403 13.2485 44.3773 12.2676 45.7826 12.2676C46.4829 12.2676 47.0518 12.5008 47.4271 12.9425C47.8049 13.3873 47.9533 14.0092 47.8452 14.6941Z" fill="#A1A7B3"/>
<path d="M88.0235 9.87263H85.5572C85.3458 9.87263 85.1659 10.027 85.133 10.2367L85.0245 10.9293L84.852 10.6785C84.3176 9.89983 83.1272 9.63967 81.9384 9.63967C79.2132 9.63967 76.8853 11.7135 76.4324 14.622C76.1965 16.073 76.5313 17.4599 77.3506 18.4278C78.1033 19.317 79.1775 19.6872 80.4573 19.6872C82.6537 19.6872 83.8722 18.2699 83.8722 18.2699L83.762 18.9585C83.7206 19.2203 83.922 19.4572 84.1861 19.4572H86.4076C86.7597 19.4572 87.0593 19.2001 87.1144 18.8509L88.4479 10.3711C88.4891 10.1091 88.2875 9.87263 88.0235 9.87263ZM84.5862 14.6941C84.348 16.1093 83.2293 17.0595 81.8022 17.0595C81.0866 17.0595 80.5141 16.8284 80.1457 16.3909C79.7811 15.9573 79.6436 15.3393 79.7593 14.6511C79.9816 13.2485 81.1181 12.2676 82.5234 12.2676C83.2237 12.2676 83.7926 12.5008 84.1681 12.9425C84.5457 13.3873 84.6941 14.0092 84.5862 14.6941Z" fill="#A1A7B3"/>
<path d="M64.4204 9.87263H61.9411C61.704 9.87263 61.4822 9.99097 61.3489 10.1879L57.9289 15.2461L56.4794 10.3853C56.3886 10.0812 56.1099 9.8724 55.7938 9.8724H53.3567C53.0624 9.8724 52.8554 10.163 52.9501 10.4429L55.6802 18.4901L53.1124 22.1281C52.9108 22.4139 53.1143 22.8089 53.4629 22.8089H55.9397C56.1745 22.8089 56.3942 22.6933 56.528 22.4994L64.7732 10.5494C64.9705 10.2637 64.7667 9.87263 64.4204 9.87263Z" fill="#A1A7B3"/>
<path d="M90.9312 5.45174L88.8167 18.959C88.7757 19.2206 88.9772 19.4572 89.2409 19.4572H91.3673C91.7195 19.4572 92.0193 19.2001 92.0744 18.8507L94.159 5.58612C94.2002 5.32433 93.9988 5.08765 93.7348 5.08765H91.3555C91.1439 5.08742 90.964 5.24203 90.9312 5.45174Z" fill="#A1A7B3"/>
<path d="M17.7992 5.79507C18.0753 4.02059 17.7974 2.81343 16.8452 1.71966C15.7969 0.515758 13.9032 0 11.4802 0H4.44689C3.95179 0 3.52998 0.363121 3.45299 0.856343L0.524098 19.5751C0.466474 19.9445 0.749752 20.2783 1.12039 20.2783H5.46245L5.1628 22.1938C5.11233 22.517 5.35988 22.809 5.68441 22.809H9.34444C9.77754 22.809 10.1463 22.4914 10.2139 22.06L10.2498 21.8723L10.9392 17.4656L10.9837 17.2221C11.0513 16.7909 11.42 16.4729 11.8531 16.4729H12.4006C15.9463 16.4729 18.7226 15.0211 19.5337 10.8221C19.8727 9.06758 19.6973 7.60301 18.8009 6.57335C18.5301 6.26251 18.1927 6.00509 17.7992 5.79507Z" fill="#A1A7B3"/>
<path d="M17.7992 5.79507C18.0753 4.02059 17.7974 2.81343 16.8452 1.71966C15.7969 0.515758 13.9032 0 11.4802 0H4.44689C3.95179 0 3.52998 0.363121 3.45299 0.856343L0.524098 19.5751C0.466474 19.9445 0.749752 20.2783 1.12039 20.2783H5.46245L6.55315 13.307L6.51927 13.5256C6.59648 13.0326 7.01437 12.6693 7.5097 12.6693H9.57355C13.6266 12.6693 16.8003 11.0096 17.7273 6.20977C17.755 6.06805 17.7782 5.93028 17.7992 5.79507Z" fill="#A1A7B3"/>
<path d="M7.72498 5.81854C7.77131 5.52209 7.96032 5.27908 8.21455 5.15641C8.33003 5.10066 8.45934 5.06953 8.59464 5.06953H14.1078C14.7611 5.06953 15.37 5.11274 15.9267 5.20311C16.0857 5.2289 16.2406 5.25864 16.3911 5.29232C16.5414 5.32601 16.6875 5.36341 16.8288 5.40523C16.8996 5.42591 16.969 5.44798 17.0374 5.47075C17.3108 5.56228 17.565 5.66985 17.7992 5.79507C18.0753 4.02059 17.7974 2.81343 16.8452 1.71966C15.7969 0.515758 13.9032 0 11.4802 0H4.44689C3.95179 0 3.52998 0.363121 3.45299 0.856343L0.524098 19.5751C0.466474 19.9445 0.749752 20.2783 1.12039 20.2783H5.46245L6.55315 13.307L7.72498 5.81854Z" fill="#A1A7B3"/>
</svg>
