<svg width="25" height="24" viewBox="0 0 25 24" fill="none" xmlns="http://www.w3.org/2000/svg">
<path d="M19.2348 18.3557C18.2923 18.3557 17.409 17.9932 16.7417 17.326L13.1478 13.732C12.9008 13.485 12.4524 13.485 12.2053 13.732L8.59662 17.3407C7.92939 18.008 7.04601 18.3705 6.10355 18.3705H5.39336L9.95929 22.9364C11.3797 24.3568 13.6982 24.3568 15.1186 22.9364L19.698 18.357L19.2348 18.3557Z" fill="black" fill-opacity="0.2"/>
<path d="M6.08879 5.62988C7.03124 5.62988 7.91462 5.99236 8.58186 6.6596L12.1906 10.2683C12.451 10.5288 12.8712 10.5288 13.133 10.2683L16.7417 6.67437C17.409 6.00713 18.2923 5.64465 19.2348 5.64465H19.6698L15.0904 1.06529C13.67 -0.355098 11.3515 -0.355098 9.93109 1.06529L5.36382 5.62988H6.08879Z" fill="black" fill-opacity="0.2"/>
<path d="M23.4517 9.42788L20.6834 6.65959C20.6257 6.68913 20.5532 6.70255 20.4807 6.70255H19.22C18.5676 6.70255 17.9299 6.963 17.4815 7.42752L13.8862 11.0215C13.5532 11.3544 13.1035 11.5289 12.6685 11.5289C12.2188 11.5289 11.7838 11.3544 11.4508 11.0215L7.84212 7.41275C7.37895 6.94958 6.74125 6.68779 6.10355 6.68779H4.55294C4.48044 6.68779 4.42271 6.67302 4.36498 6.64482L1.58193 9.42788C0.161534 10.8483 0.161534 13.1668 1.58193 14.5872L4.35021 17.3555C4.40794 17.326 4.46567 17.3125 4.53817 17.3125H6.08879C6.74125 17.3125 7.37895 17.0521 7.82736 16.5876L11.4361 12.9789C12.0885 12.3264 13.2337 12.3264 13.8848 12.9789L17.4788 16.5728C17.9419 17.036 18.5796 17.2978 19.2173 17.2978H20.478C20.5505 17.2978 20.6082 17.3125 20.6807 17.3407L23.449 14.5724C24.8721 13.152 24.8721 10.8483 23.4517 9.42788Z" fill="black" fill-opacity="0.2"/>
</svg>
