<svg width="78" height="24" viewBox="0 0 78 24" fill="none" xmlns="http://www.w3.org/2000/svg">
<path d="M56.3464 0.973001C54.545 0.316616 52.6409 -0.0127619 50.7238 0.00037818C44.5238 0.00037818 40.145 3.12363 40.114 7.607C40.0753 10.9008 43.2256 12.7569 45.6087 13.8574C48.0539 14.9889 48.8715 15.7019 48.8637 16.7133C48.8482 18.2516 46.9107 18.9491 45.1089 18.9491C42.6327 18.9491 41.2804 18.6043 39.1995 17.7401L38.4284 17.3798L37.5487 22.5413C39.0561 23.169 41.7725 23.7076 44.578 23.7541C51.1694 23.7541 55.4784 20.6503 55.5287 15.8801C55.583 13.249 53.878 11.2611 50.2897 9.61813C48.1081 8.5525 46.7557 7.8395 46.7557 6.75838C46.7557 5.80125 47.9144 4.77825 50.3362 4.77825C51.9481 4.73925 53.5499 5.04167 55.0366 5.66563L55.6179 5.92525L56.4975 0.938127L56.3464 0.973001ZM72.4354 0.418877H67.5916C66.0843 0.418877 64.9489 0.833502 64.2901 2.32925L54.9746 23.4325H61.566L62.8835 19.9721L70.928 19.9799C71.1179 20.7898 71.6991 23.4325 71.6991 23.4325H77.5116L72.4354 0.418877ZM31.1976 0.225127H37.479L33.5497 23.2504H27.2761L31.1976 0.217377V0.225127ZM15.252 12.9157L15.903 16.1126L22.041 0.418877H28.6944L18.8093 23.4015H12.1714L6.74638 3.94125C6.65851 3.62037 6.45216 3.34478 6.169 3.17013C4.21368 2.16006 2.14189 1.39355 0 0.88775L0.0852498 0.403375H10.1951C11.5669 0.457625 12.6712 0.887751 13.0394 2.3525L15.2481 12.9274L15.252 12.9157ZM64.6854 15.264L67.1886 8.82375C67.1576 8.8935 67.704 7.49463 68.0218 6.6305L68.4519 8.61838L69.905 15.2601H64.6815L64.6854 15.264Z" fill="black" fill-opacity="0.2"/>
</svg>
